<svg width="51" height="50" viewBox="0 0 51 38" fill="none" xmlns="http://www.w3.org/2000/svg">
<path d="M48.9991 14.8418C48.9463 11.1758 47.0791 9.55859 46.6368 9.22656C45.5628 8.3264 44.6683 7.23174 44.0001 6C44.0001 4.37256 41.5577 2.75732 40.4473 2.10547C37.8043 0.835729 34.9298 0.11926 32.0001 0C29.827 0.0347836 27.6901 0.560857 25.7492 1.53881C23.8084 2.51676 22.114 3.92123 20.7931 5.647C17.5057 3.79293 13.7722 2.8773 10.0001 3C2.2359 3 0.312556 6.166 0.118706 6.52734C0.0411143 6.6723 0.000367494 6.83412 5.63346e-05 6.99854C-0.00433367 10.0972 0.234917 25.3599 5.30963 27.7954C6.0142 28.9903 6.84355 30.1071 7.78375 31.127C8.3154 31.5738 8.94246 31.8928 9.61669 32.0593C10.2909 32.2258 10.9944 32.2354 11.6729 32.0874L13.2931 33.707C13.662 34.0509 14.1076 34.3019 14.5929 34.4392C15.0781 34.5765 15.5892 34.5961 16.0836 34.4966C16.7662 34.4394 17.0284 34.4424 17.2931 34.707C17.4683 34.8828 17.6295 35.0483 17.7804 35.2036C18.7549 36.2075 19.5245 37 21.0001 37C21.7827 36.921 22.5441 36.698 23.2457 36.3423C23.8879 36.0179 24.58 35.8032 25.2931 35.707C26.5131 37.0425 28.1964 37.8625 30.0001 38C31.7696 38 32.4293 36.521 32.8233 35.6372C32.9135 35.4205 33.0176 35.2097 33.1348 35.0064C33.6582 35.0922 34.17 35.2379 34.6602 35.4404C35.4026 35.759 36.1939 35.9482 37.0001 36C38.3921 36 38.753 34.5903 38.9688 33.748C39.0281 33.4925 39.1036 33.241 39.1949 32.9951C40.9245 32.7977 42.5258 31.9857 43.7071 30.707C44.4037 29.8536 44.9316 28.8754 45.2627 27.8247C45.4813 27.1832 45.7743 26.5694 46.1357 25.9961C47.6997 25.9004 48.5288 24.1723 48.7783 23.5493C49.686 22.2136 50.1164 20.6107 50.0001 19C49.8999 17.6533 49.5909 16.3303 49.0841 15.0786C49.0499 14.9839 49.0206 14.9038 48.9991 14.8418ZM47.2202 22.3013C47.1015 22.4131 47.0118 22.5522 46.959 22.7065C46.7642 23.2764 46.2735 24 46.0001 24C44.6275 24 44.0328 25.5 43.4039 27.0879C43.1513 27.8765 42.7764 28.6206 42.2931 29.293C41.438 30.2416 40.2681 30.848 39.0001 31C37.608 31 37.2471 32.4097 37.0313 33.252C36.973 33.5016 36.8997 33.7475 36.8121 33.9883C36.3079 33.8965 35.8146 33.7528 35.3399 33.5596C34.5976 33.241 33.8062 33.0518 33.0001 33C31.8091 33 31.3204 34.0972 30.9966 34.8228C30.5699 35.7798 30.3834 36 30.0001 36C28.7321 35.848 27.5621 35.2416 26.7071 34.293C26.5138 34.1024 26.2836 33.9534 26.0306 33.8551C25.7776 33.7569 25.5071 33.7115 25.2359 33.7217C24.277 33.807 23.3423 34.0692 22.479 34.4952C22.0078 34.7214 21.5113 34.8909 21.0001 35C20.4081 35 20.0995 34.72 19.2523 33.8482C20.3898 31.9926 22.1636 30.6142 24.2427 29.9702C24.5001 29.9058 24.7213 29.7419 24.8577 29.5144C24.9941 29.287 25.0346 29.0146 24.9703 28.7573C24.9059 28.5 24.742 28.2788 24.5145 28.1424C24.287 28.0059 24.0147 27.9654 23.7574 28.0298C21.232 28.7684 19.0632 30.4039 17.6585 32.6288C17.0934 32.4633 16.4995 32.4206 15.9166 32.5034C15.2364 32.5625 14.9722 32.5581 14.7071 32.293L13.2996 30.8855C14.5601 29.1196 16.3015 27.7532 18.3165 26.9487C18.5681 26.8648 18.7761 26.6844 18.8946 26.4471C19.0132 26.2099 19.0327 25.9352 18.9488 25.6836C18.8649 25.432 18.6844 25.224 18.4472 25.1054C18.2099 24.9868 17.9353 24.9674 17.6836 25.0513C15.121 26.0579 12.9262 27.8218 11.392 30.1079C11.0194 30.2043 10.6304 30.219 10.2516 30.1508C9.87286 30.0826 9.51336 29.9332 9.19781 29.7129C8.47937 28.9359 7.83932 28.09 7.28693 27.1873C9.04846 25.6595 12.6107 23 15.0001 23C15.2653 23 15.5196 22.8946 15.7072 22.7071C15.8947 22.5196 16.0001 22.2652 16.0001 22C16.0001 21.7348 15.8947 21.4804 15.7072 21.2929C15.5196 21.1054 15.2653 21 15.0001 21C11.6307 21 7.32489 24.4987 5.8435 25.7961C4.95257 25.162 4.23913 23.6845 3.6805 21.7543C5.48406 20.6302 10.2786 18 13.0001 18C13.2653 18 13.5196 17.8946 13.7072 17.7071C13.8947 17.5196 14.0001 17.2652 14.0001 17C14.0001 16.7348 13.8947 16.4804 13.7072 16.2929C13.5196 16.1054 13.2653 16 13.0001 16C9.78534 16 4.9845 18.6514 3.17883 19.7208C2.79216 17.8103 2.51067 15.88 2.33563 13.9386C2.43352 13.9048 2.52557 13.8561 2.60846 13.794C2.6319 13.7759 5.14069 12 12.0001 12C12.2653 12 12.5196 11.8946 12.7072 11.7071C12.8947 11.5196 13.0001 11.2652 13.0001 11C13.0001 10.7348 12.8947 10.4804 12.7072 10.2929C12.5196 10.1054 12.2653 10 12.0001 10C6.45965 10 3.44781 11.11 2.16046 11.756C2.05792 10.1923 2.0061 8.67861 2.00055 7.32473C2.48736 6.76367 4.46051 5 10.0001 5C13.296 4.90375 16.5608 5.66158 19.4773 7.19989C18.4602 8.52507 17.8814 10.1343 17.8214 11.8038C17.7614 13.4732 18.2232 15.1199 19.1426 16.5147C21.8716 21.0635 25.417 23.2505 30.1568 23.2505C31.165 23.2453 32.171 23.1569 33.1646 22.9863C34.2602 22.8678 35.2968 22.4303 36.146 21.728C36.9952 21.0257 37.6195 20.0895 37.9415 19.0356C38.3174 17.7412 38.4 16.3793 38.1832 15.049C38.824 15.0757 39.4587 15.1845 40.0718 15.3726C40.1584 15.5881 40.3173 15.7668 40.5213 15.878C40.7253 15.9892 40.9616 16.0259 41.1897 15.9818C41.4177 15.9378 41.6234 15.8157 41.7712 15.6365C41.9191 15.4573 42 15.2323 42.0001 15C42.0001 14.5292 41.9901 13.1458 37.6794 13.0131C37.4763 12.3793 37.1454 11.7938 36.7071 11.293C36.2512 10.8365 35.7629 10.4134 35.2461 10.0271C35.8197 9.37387 36.7964 8.51456 37.5528 8.89456C37.7899 9.01244 38.0641 9.03144 38.3153 8.94739C38.5664 8.86334 38.774 8.68312 38.8924 8.44624C39.0109 8.20936 39.0305 7.93518 38.9471 7.68383C38.8636 7.43249 38.6839 7.2245 38.4473 7.1055C36.4801 6.12497 34.5558 7.6561 33.5073 8.9827C32.4357 8.47957 31.2838 8.16908 30.1045 8.06546C30.2783 7.18323 30.7438 6 32.0001 6C32.2653 6 32.5196 5.89464 32.7072 5.70711C32.8947 5.51957 33.0001 5.26522 33.0001 5C33.0001 4.73478 32.8947 4.48043 32.7072 4.29289C32.5196 4.10536 32.2653 4 32.0001 4C29.3376 4 28.3268 6.31335 28.0722 8.07806C24.4786 8.63818 23.0001 12.3689 23.0001 14C23.0001 16.5234 25.9722 19 29.0001 19C29.3842 19.0081 29.7655 18.9327 30.1176 18.7791C30.4698 18.6254 30.7844 18.397 31.0396 18.1099C32.2808 16.7163 32.0264 14.1704 31.9932 13.8848C31.9627 13.6214 31.8287 13.3809 31.6208 13.2162C31.413 13.0516 31.1482 12.9763 30.8848 13.0068C30.6214 13.0374 30.381 13.1713 30.2163 13.3792C30.0517 13.5871 29.9763 13.8518 30.0069 14.1152C30.1456 15.0297 29.984 15.9644 29.5464 16.7793C29.4789 16.8562 29.3943 16.9162 29.2995 16.9545C29.2046 16.9929 29.102 17.0084 29.0001 17C26.94 17 25.0001 15.3101 25.0001 14C25.0001 13.5015 25.7945 10 29.0001 10C30.1805 9.98264 31.3512 10.2148 32.4357 10.6813C33.5202 11.1478 34.4939 11.8381 35.2931 12.707C36.2843 14.4408 36.5515 16.4956 36.0367 18.4253C35.8232 19.1274 35.404 19.7493 34.8334 20.2107C34.2627 20.6722 33.5668 20.9518 32.8355 21.0136C27.3932 21.9219 23.6964 20.2163 20.8575 15.4853C20.06 14.3057 19.7042 12.8825 19.8526 11.4664C20.0011 10.0502 20.6443 8.73176 21.6691 7.74313C21.6902 7.71766 21.7099 7.69109 21.7283 7.66354C21.7501 7.63974 21.7804 7.62613 21.7999 7.60007C25.4542 2.72754 29.7593 2 32.0001 2C34.595 2.12433 37.1403 2.75673 39.4918 3.86133C40.479 4.37504 41.3367 5.10634 42.0001 6C42.0001 7.50732 44.3233 9.81348 45.3218 10.7349C45.3595 10.7684 45.3991 10.7997 45.4405 10.8286C45.5044 10.8735 47.0001 11.9556 47.0001 15C47.0002 15.0858 47.0112 15.1713 47.0328 15.2544C47.0558 15.3418 47.1163 15.5176 47.2022 15.7559C47.6247 16.7926 47.8935 17.8855 48.0001 19C48.0001 21.4175 47.2178 22.3013 47.2202 22.3013Z" fill="#031E17"/>
</svg>
