<svg width="500" height="524" viewBox="0 0 500 524" fill="none" xmlns="http://www.w3.org/2000/svg">
<rect y="24" width="500" height="500" rx="250" fill="white"/>
<path d="M148 452C128 452 113.333 448.667 104 442C94.6667 435.333 90 426 90 414C90 404.933 92.8 397.6 98.4 392C103.733 386.667 110.933 384 120 384C122.133 384 124.267 384.133 126.4 384.4C128.533 384.933 130 385.2 130.8 385.2L136 386V442L138.4 443.2C141.067 443.733 142.933 444 144 444C152.267 444 158.933 438.933 164 428.8C169.333 418.933 172 402 172 378V178L148 172V166H200C224 166 236 178 236 202V378C236 392.133 232.533 404.8 225.6 416C218.667 427.2 208.533 436 195.2 442.4C181.867 448.8 166.133 452 148 452ZM200 142C192 142 185.333 139.333 180 134C174.667 128.667 172 122 172 114C172 106 174.667 99.3333 180 94C185.333 88.6667 192 86 200 86C208 86 214.667 88.6667 220 94C225.333 99.3333 228 106 228 114C228 122 225.333 128.667 220 134C214.667 139.333 208 142 200 142ZM282.031 360L306.031 354V98L282.031 92V86H334.031C358.031 86 370.031 98 370.031 122V354L394.031 360V366H282.031V360Z" fill="#031E17"/>
</svg>
