<svg width="50" height="44" viewBox="0 0 50 44" fill="none" xmlns="http://www.w3.org/2000/svg">
<path d="M44.0003 0C39.9519 0 34.4324 2.78613 31.0813 10.606C29.2043 14.9854 26.9944 15.9317 24.4353 17.0269C23.0043 17.579 21.6486 18.3092 20.4002 19.2002C20.0442 19.4673 19.5584 19.791 18.9705 20.1846C10.4588 25.4824 3.843 33.3391 0.0715578 42.6284C-0.0166516 42.8489 -0.023531 43.0936 0.052151 43.3186C0.127833 43.5437 0.281137 43.7345 0.484632 43.8569C0.688127 43.9793 0.928533 44.0253 1.16283 43.9867C1.39713 43.948 1.61004 43.8273 1.76345 43.646C4.48574 40.429 12.0206 32.6529 16.6858 32.0055C16.5289 33.2075 16.0475 34.344 15.2933 35.293C15.134 35.4523 15.0333 35.6607 15.0072 35.8845C14.9812 36.1082 15.0315 36.3342 15.1499 36.5258C15.2684 36.7174 15.448 36.8634 15.6598 36.9401C15.8715 37.0169 16.103 37.02 16.3167 36.9488C17.2951 36.6012 18.2344 36.1523 19.1193 35.6092C18.7138 36.9785 18.0635 38.263 17.2 39.4004C17.0722 39.5709 17.0023 39.7778 17.0004 39.9909C16.9985 40.204 17.0647 40.4121 17.1894 40.5849C17.314 40.7577 17.4906 40.8862 17.6934 40.9517C17.8961 41.0171 18.1145 41.0161 18.3167 40.9487C18.5896 40.8579 25.0003 38.667 25.0003 34V31.8306C26.49 31.5097 27.9196 30.9549 29.2358 30.1869C29.3384 31.3966 29.2656 32.6148 29.0198 33.8037C28.9776 34.0142 29.0043 34.2326 29.0959 34.4267C29.1875 34.6208 29.3391 34.7804 29.5283 34.8816C29.7175 34.9829 29.9343 35.0207 30.1467 34.9892C30.359 34.9578 30.5556 34.8588 30.7073 34.707C32.1022 33.2677 33.1125 31.5006 33.6453 29.5684C34.933 30.5282 36.152 31.577 37.2933 32.707C37.4212 32.835 37.5815 32.9259 37.757 32.9699C37.9326 33.014 38.1168 33.0095 38.29 32.9571C38.4632 32.9047 38.619 32.8062 38.7406 32.6722C38.8623 32.5382 38.9453 32.3737 38.9808 32.1963C39.0262 31.9707 40.0477 26.6328 36.7073 23.2929C35.9408 22.5091 35.1208 21.7794 34.2532 21.1091L34.2884 20.9082C35.1697 15.8384 36.2664 9.53366 41.3826 6.92722C42.0514 6.74514 42.7502 6.70081 43.4366 6.79692C44.123 6.89302 44.7827 7.12756 45.3758 7.4863C45.8738 7.77287 46.428 7.94812 47.0003 8C47.9739 8 50.0003 8 50.0003 6C50.0003 4.398 48.5784 0 44.0003 0ZM47.0159 6.00049C46.7429 5.91641 46.4781 5.80755 46.2249 5.67529C45.3922 5.20023 44.4714 4.89988 43.5187 4.7926C42.566 4.68531 41.6014 4.77333 40.6839 5.05129C40.6391 5.0664 40.5954 5.08451 40.553 5.10549C34.6672 8.04842 33.3132 14.8745 32.4055 20.0647C32.2739 20.0249 32.1376 20.0031 32.0003 20C31.7455 19.9999 31.5003 20.0971 31.3147 20.2717C31.1292 20.4462 31.0172 20.685 31.0018 20.9393C30.9863 21.1936 31.0685 21.4443 31.2316 21.64C31.3946 21.8358 31.6263 21.9619 31.8792 21.9927C32.0169 22.0347 32.9783 22.3921 35.2932 24.707C36.5446 26.1186 37.2106 27.9542 37.1555 29.8398C36.0296 28.7879 34.7852 27.8703 33.4475 27.1055C33.0429 26.9122 32.6962 26.6159 32.4422 26.2464C32.1882 25.8768 32.0358 25.447 32.0003 25C32.0003 24.7348 31.8949 24.4804 31.7074 24.2929C31.5198 24.1054 31.2655 24 31.0003 24C30.7351 24 30.4807 24.1054 30.2932 24.2929C30.1056 24.4804 30.0003 24.7348 30.0003 25C30.0248 25.5672 30.1562 26.1246 30.3875 26.6431C28.9652 28.2245 27.0798 29.3163 25.0003 29.7628V29C25.0003 28.7348 24.8949 28.4804 24.7074 28.2929C24.5198 28.1054 24.2655 28 24.0003 28C23.7351 28 23.4807 28.1054 23.2932 28.2929C23.1056 28.4804 23.0003 28.7348 23.0003 29V34C23.0003 35.4653 21.8513 36.6904 20.5686 37.581C20.9027 36.9701 21.1045 36.2956 21.1606 35.6016C21.2168 34.9075 21.1263 34.2094 20.8948 33.5527C20.2947 32.353 21.3992 30.2094 21.8333 29.5532C21.9774 29.3324 22.0285 29.0636 21.9754 28.8053C21.9224 28.547 21.7694 28.3201 21.5499 28.174C21.3303 28.0279 21.062 27.9745 20.8032 28.0253C20.5445 28.0761 20.3163 28.227 20.1683 28.4453C19.8175 28.9876 19.5189 29.5621 19.2767 30.1609C18.907 30.1234 18.5362 30.0756 18.1649 30.0136C14.1736 29.3452 8.62092 33.8027 4.73322 37.5708C8.50278 31.1651 13.7699 25.7695 20.0828 21.8467C20.7073 21.4292 21.2224 21.0835 21.6004 20.7998C22.7221 20.0059 23.9391 19.3561 25.2229 18.8657C27.929 17.707 30.7273 16.5088 32.9193 11.394C35.8909 4.46045 40.7459 2 44.0003 2C47.2815 2 47.909 5.33447 47.9881 5.94824C47.666 5.99249 47.3408 6.00997 47.0159 6.00049ZM31.6128 28.2774C31.6922 28.3438 31.7764 28.4081 31.8638 28.4716C31.7456 29.1409 31.541 29.792 31.2551 30.4087C31.2209 29.8828 31.1538 29.3596 31.054 28.8421C31.2506 28.6605 31.4356 28.4716 31.6128 28.2774ZM18.7068 32.1038L18.7563 32.1104C18.7026 32.5487 18.7109 32.9923 18.781 33.4283C18.6298 33.5392 18.4765 33.6463 18.3216 33.7476C18.4826 33.2078 18.6112 32.6589 18.7068 32.1038Z" fill="#ffffff"/>
</svg>
