<svg width="50" height="50" viewBox="0 0 50 26" fill="none" xmlns="http://www.w3.org/2000/svg">
<path d="M4.68364 8.94878C0.163639 7.44244 0.00492859 4.17146 0.000537872 4.0328C-0.00492096 3.86671 0.0311012 3.70189 0.105339 3.55322C0.179577 3.40455 0.289692 3.27672 0.425735 3.18129C0.561779 3.08586 0.71946 3.02584 0.884525 3.00665C1.04959 2.98746 1.21684 3.00971 1.37114 3.07138C2.71294 3.60798 6.51906 5.00007 8.00006 5.00007C8.56978 5.07232 9.11644 5.26982 9.60077 5.5784C10.0851 5.88697 10.4951 6.29897 10.8013 6.78479C10.939 6.52606 11.0796 6.25012 11.2207 5.96079C11.2484 5.90403 11.2761 5.84745 11.3038 5.78959C11.4581 5.46727 11.6124 5.12981 11.7628 4.77617C11.7792 4.73754 11.7949 4.69701 11.8113 4.65801C11.9515 4.32366 12.0874 3.97601 12.2174 3.61852C12.2367 3.56552 12.2568 3.51403 12.2758 3.46052C12.409 3.08534 12.5329 2.69741 12.6476 2.3019C12.6712 2.22054 12.6933 2.13814 12.716 2.05599C12.8291 1.64599 12.9343 1.2297 13.0195 0.803731C13.0584 0.610596 13.1534 0.433234 13.2927 0.293867C13.4319 0.154501 13.6092 0.0593311 13.8023 0.0202839C13.9323 -0.00651286 14.0663 -0.00676169 14.1963 0.0195533C14.2175 0.0238233 14.2963 0.0404926 14.4178 0.0721025C15.3626 0.312521 16.255 0.725299 17.0501 1.28969C17.1328 1.34694 17.2147 1.40828 17.2973 1.47042C17.3411 1.50405 17.385 1.53642 17.4285 1.57119C18.2677 2.21983 18.938 3.06142 19.3824 4.02448C21.5161 3.31796 23.7526 2.97176 26.0001 3.00007C33.5353 3.00007 39.7799 12.3672 41.8321 15.4453C43.3131 17.6665 47.7369 19.5235 49.3165 20.0513C49.5201 20.1193 49.6964 20.2509 49.8194 20.4267C49.9424 20.6026 50.0056 20.8133 49.9996 21.0279C49.9936 21.2424 49.9188 21.4493 49.7862 21.618C49.6536 21.7868 49.4703 21.9084 49.2633 21.9649C47.419 22.4804 45.5141 22.7467 43.5992 22.7569C40.204 22.7813 36.8758 21.8122 34.0245 19.9688C34.6349 21.7522 34.5888 23.6949 33.8945 25.4473C33.8115 25.6134 33.6838 25.7531 33.5258 25.8507C33.3678 25.9483 33.1858 26 33.0001 26H25.0001C24.7855 26 24.5766 25.9309 24.4042 25.803C24.2319 25.6751 24.1053 25.4952 24.0431 25.2898C23.9809 25.0844 23.9864 24.8644 24.0589 24.6624C24.1313 24.4604 24.2668 24.2871 24.4454 24.168C24.745 24.0048 25.0029 23.7745 25.1989 23.4951C25.3949 23.2158 25.5237 22.895 25.5753 22.5577C25.6013 21.9894 25.4639 21.4256 25.1793 20.9331C24.852 20.9538 24.5125 20.9703 24.1573 20.9813C23.905 22.4843 23.4932 23.956 22.9288 25.3716C22.8544 25.5571 22.7262 25.716 22.5607 25.828C22.3952 25.94 22.1999 25.9999 22.0001 26H14.0001C13.8026 25.9997 13.6096 25.941 13.4454 25.8313C13.2813 25.7215 13.1533 25.5657 13.0775 25.3833C13.0017 25.2009 12.9816 25.0002 13.0197 24.8065C13.0578 24.6127 13.1524 24.4345 13.2916 24.2944C14.2026 23.4101 14.8021 22.2541 15.0001 21C15.0001 20.7193 15.0021 20.5288 14.9996 20.397C14.6838 19.957 14.4397 19.4697 14.2765 18.9533C13.6208 18.5253 13.0486 17.9814 12.588 17.3482C11.1102 17.8391 9.55609 18.0599 8.00006 18C3.51177 18 2.23638 15.7085 2.10552 15.4473C1.92972 15.0944 1.84165 14.7042 1.84879 14.31C1.85593 13.9157 1.95806 13.529 2.14652 13.1827C2.23131 13.0621 2.32877 12.951 2.43723 12.8513L2.29305 12.707C2.19882 12.6145 2.12386 12.5042 2.07249 12.3825C2.02112 12.2609 1.99437 12.1302 1.99377 11.9982C1.99317 11.8661 2.01874 11.7352 2.06901 11.6131C2.11927 11.491 2.19323 11.38 2.28662 11.2866C2.38001 11.1932 2.49097 11.1193 2.6131 11.069C2.73523 11.0187 2.86611 10.9932 2.99818 10.9938C3.13025 10.9944 3.26089 11.0211 3.38256 11.0725C3.50423 11.1239 3.61452 11.1988 3.70705 11.293L4.45577 12.0418C4.6353 12.0262 4.80286 12 5.00006 12C6.02399 12 6.21149 11.6119 6.58551 10.8384C6.64557 10.7141 6.71435 10.5779 6.78882 10.4392C6.30055 9.69431 5.54844 9.16184 4.68364 8.94878ZM3.84819 14.2339C3.83221 14.3337 3.84404 14.4359 3.88237 14.5293C3.91655 14.5894 4.7608 16 8.00006 16C11.2842 16 12.2842 15.292 12.2935 15.292C12.4171 15.1717 12.5698 15.0859 12.7367 15.0422C12.9036 14.9984 13.0789 14.9987 13.2457 15.043C13.4143 15.0873 13.5689 15.174 13.6946 15.2949C13.8203 15.4157 13.913 15.5667 13.9639 15.7334C14.1922 16.2429 14.5502 16.6836 15.002 17.0115C15.2106 17.0093 15.4144 17.0732 15.5845 17.1939C15.7545 17.3146 15.8821 17.486 15.9488 17.6836C16.0747 18.2106 16.2888 18.7125 16.5821 19.168C17.0001 19.586 17.0001 19.8574 17.0001 21C16.9543 22.0691 16.6199 23.1057 16.0323 24H18.3082C18.9879 22.0884 19.5982 19.4326 19.1055 18.4473C18.4279 17.0593 18.0512 15.5438 18.0001 14C18.0001 13.7355 18.1052 13.4818 18.2921 13.2946C18.479 13.1074 18.7326 13.002 18.9971 13.0015H19.0001C19.2645 13.0019 19.518 13.1068 19.7054 13.2934C19.8927 13.48 19.9987 13.7332 20.0001 13.9976C20.0528 15.2312 20.3572 16.4411 20.8946 17.5528C21.0968 17.988 21.2165 18.4569 21.2477 18.9358C21.7953 18.9734 22.3687 19 23.0001 19C23.3151 19 23.6019 18.9917 23.8928 18.9845C23.3995 17.4686 24.2071 14.7898 25.0714 12.6285C25.1199 12.5062 25.1922 12.3947 25.2839 12.3004C25.3756 12.2061 25.485 12.1308 25.6059 12.0788C25.7268 12.0268 25.8567 11.9992 25.9883 11.9975C26.1198 11.9959 26.2504 12.0202 26.3726 12.069C26.4947 12.1179 26.6061 12.1904 26.7001 12.2824C26.7942 12.3743 26.8693 12.4839 26.9209 12.6049C26.9726 12.7259 26.9999 12.8559 27.0012 12.9875C27.0026 13.1191 26.978 13.2496 26.9288 13.3716C26.0904 15.4673 25.5343 17.8472 25.7071 18.293C26.3092 18.8673 26.7852 19.5606 27.1052 20.3287C27.4251 21.0968 27.5818 21.923 27.5655 22.7549C27.5224 23.187 27.4045 23.6083 27.2169 24H29.2882C29.5615 22.7746 29.4793 21.4967 29.0514 20.3164C28.7853 19.4908 28.751 18.608 28.9523 17.7643C29.1536 16.9205 29.5828 16.1483 30.193 15.5318C30.6081 15.1126 30.8891 14.5794 31.0001 14C31.0001 13.7348 31.1054 13.4805 31.293 13.2929C31.4805 13.1054 31.7349 13 32.0001 13C32.2653 13 32.5197 13.1054 32.7072 13.2929C32.8947 13.4805 33.0001 13.7348 33.0001 14C32.9785 14.7311 32.7351 15.4383 32.3021 16.0277C32.4762 16.0982 32.632 16.2074 32.7574 16.3472C34.4096 18.0104 36.4271 19.265 38.6494 20.0113C40.8717 20.7576 43.2376 20.9749 45.5587 20.646C43.6393 19.7085 41.3341 18.3037 40.1681 16.5547C38.2628 13.6968 32.4649 5.00007 26.0001 5.00007C23.9345 4.97582 21.8801 5.30656 19.9265 5.97784C19.9737 6.31657 19.9983 6.65807 20.0001 7.00006C20.0001 11.5728 16.8883 13.5586 15.2427 13.9702C14.9854 14.0346 14.7131 13.9941 14.4856 13.8577C14.2582 13.7212 14.0942 13.5 14.0299 13.2427C13.9655 12.9854 14.006 12.7131 14.1424 12.4856C14.2789 12.2581 14.5001 12.0942 14.7574 12.0298C14.7901 12.022 18.0001 11.1709 18.0001 7.00006C18.0121 5.97182 17.7038 4.96532 17.1181 4.12014C16.5323 3.27497 15.6981 2.633 14.7311 2.28328C13.9202 5.26528 12.5894 8.08076 10.7999 10.6001C10.6724 10.7679 10.4947 10.8904 10.2927 10.95C10.0907 11.0096 9.87487 11.0031 9.6768 10.9314C9.45366 10.974 9.22721 10.997 9.00006 11C8.78082 11 8.72858 11 8.38629 11.7085C8.14577 12.4054 7.68569 13.0055 7.07512 13.4187C6.46454 13.8319 5.73642 14.0359 5.00006 14C4.16851 14 3.87994 14.1846 3.84819 14.2339ZM21.3082 24C21.6591 23.0168 21.9323 22.0076 22.1254 20.9817C21.7939 20.9716 21.4749 20.9554 21.1646 20.9346C21.0024 21.9752 20.7539 23.0006 20.4216 24H21.3082ZM32.2882 24C32.5615 22.7746 32.4794 21.4967 32.0514 20.3164C31.917 19.9116 31.8383 19.4904 31.8175 19.0644C31.5419 19.2807 31.2465 19.4705 30.935 19.6312C30.9408 19.6494 30.9427 19.6652 30.9488 19.6836C31.4332 21.0684 31.5602 22.5531 31.318 24H32.2882ZM8.00006 7.00006C6.32492 6.83348 4.67952 6.44397 3.10748 5.84187C3.75353 6.39158 4.50531 6.80319 5.31648 7.05133C6.50902 7.38958 7.55771 8.10962 8.30176 9.10105C8.52864 9.03484 8.76371 9.00084 9.00006 9.00005C9.17971 8.99362 9.35808 8.96718 9.53186 8.9212L9.58856 8.8355C9.61786 8.79125 9.6543 8.73381 9.68671 8.6839C9.03613 7.68072 8.3927 7.00006 8.00006 7.00006Z" fill="#031E17"/>
</svg>
