<svg width="431" height="424" viewBox="0 0 431 424" fill="none" xmlns="http://www.w3.org/2000/svg">
<path fill-rule="evenodd" clip-rule="evenodd" d="M11.071 423.199C14.127 423.32 17.1838 422.979 20.138 422.188C85.276 409.435 147.066 396.672 205.509 383.9C263.942 371.147 321.702 359.391 378.791 348.634C390.204 346.619 397.425 341.245 400.452 332.513C403.474 323.791 405.993 308.341 408.008 286.164L430.172 10.088L427.149 8.07203C423.781 6.73403 421.105 4.04204 419.09 0.0120364C416.035 -0.102441 412.979 0.236907 410.023 1.01902C350.639 20.7617 290.072 36.7496 228.681 48.888C166.218 61.3227 106.443 73.244 49.354 84.652C37.2647 87.3427 29.709 92.8844 26.687 101.277C23.6644 109.684 21.4817 124.965 20.139 147.122C17.447 180.042 15.432 205.903 14.094 224.706C12.74 243.519 11.7327 257.793 11.072 267.528C10.3954 277.273 9.89169 283.655 9.56102 286.672C9.3911 288.712 9.05397 290.734 8.55302 292.718C8.15522 294.195 7.98659 295.724 8.05302 297.252C8.05302 299.267 7.70702 304.147 7.04602 311.862C6.36935 319.595 5.52969 331.182 4.52702 346.623C3.51969 362.083 2.00869 384.25 -0.00598145 413.123C-0.00598145 419.846 3.68802 423.205 11.076 423.199H11.071Z" fill="#005B59"/>
</svg>
